<svg width="200" height="200" viewBox="0 0 200 200" fill="none" xmlns="http://www.w3.org/2000/svg">
<rect width="200" height="200" fill="black"/>
<path d="M63.0298 42.3636H73.4276V72.5341C73.4134 75.3608 72.7386 77.8324 71.4034 79.9489C70.0682 82.0511 68.2216 83.6847 65.8636 84.8494C63.5199 86.0142 60.8068 86.5966 57.7244 86.5966C54.9972 86.5966 52.5185 86.1207 50.2884 85.169C48.0724 84.2173 46.304 82.7401 44.983 80.7372C43.6761 78.7344 43.0298 76.1705 43.044 73.0455H53.5483C53.5909 74.1676 53.804 75.1264 54.1875 75.9219C54.5852 76.7031 55.1321 77.2926 55.8281 77.6903C56.5241 78.0881 57.3551 78.2869 58.321 78.2869C59.3295 78.2869 60.1818 78.0739 60.8778 77.6477C61.5739 77.2074 62.0994 76.5611 62.4545 75.7088C62.8239 74.8565 63.0156 73.7983 63.0298 72.5341V42.3636ZM95.3469 86.6179C91.9237 86.6179 88.9691 85.9432 86.4833 84.5938C84.0117 83.2301 82.1083 81.2912 80.7731 78.777C79.4521 76.2486 78.7915 73.2443 78.7915 69.7642C78.7915 66.3835 79.4592 63.429 80.7944 60.9006C82.1296 58.358 84.0117 56.3835 86.4407 54.9773C88.8697 53.5568 91.7319 52.8466 95.0273 52.8466C97.3569 52.8466 99.4876 53.2088 101.419 53.9332C103.351 54.6577 105.02 55.7301 106.426 57.1506C107.833 58.571 108.926 60.3253 109.708 62.4134C110.489 64.4872 110.88 66.8665 110.88 69.5511V72.1506H82.435V66.0994H101.185C101.171 64.9915 100.908 64.0043 100.397 63.1378C99.8853 62.2713 99.1822 61.5966 98.2873 61.1136C97.4066 60.6165 96.391 60.3679 95.2404 60.3679C94.0756 60.3679 93.0316 60.6307 92.1083 61.1562C91.185 61.6676 90.4535 62.3707 89.9137 63.2656C89.3739 64.1463 89.0898 65.1477 89.0614 66.2699V72.4276C89.0614 73.7628 89.3242 74.9347 89.8498 75.9432C90.3754 76.9375 91.1211 77.7116 92.087 78.2656C93.0529 78.8196 94.2035 79.0966 95.5387 79.0966C96.462 79.0966 97.3001 78.9687 98.0529 78.7131C98.8058 78.4574 99.4521 78.081 99.9918 77.5838C100.532 77.0866 100.936 76.4759 101.206 75.7514L110.773 76.0284C110.375 78.1733 109.502 80.0412 108.152 81.6321C106.817 83.2088 105.063 84.4375 102.89 85.3182C100.716 86.1847 98.2021 86.6179 95.3469 86.6179ZM131.499 86.6179C128.076 86.6179 125.121 85.9432 122.636 84.5938C120.164 83.2301 118.261 81.2912 116.925 78.777C115.604 76.2486 114.944 73.2443 114.944 69.7642C114.944 66.3835 115.612 63.429 116.947 60.9006C118.282 58.358 120.164 56.3835 122.593 54.9773C125.022 53.5568 127.884 52.8466 131.18 52.8466C133.509 52.8466 135.64 53.2088 137.572 53.9332C139.504 54.6577 141.173 55.7301 142.579 57.1506C143.985 58.571 145.079 60.3253 145.86 62.4134C146.641 64.4872 147.032 66.8665 147.032 69.5511V72.1506H118.587V66.0994H137.337C137.323 64.9915 137.06 64.0043 136.549 63.1378C136.038 62.2713 135.335 61.5966 134.44 61.1136C133.559 60.6165 132.543 60.3679 131.393 60.3679C130.228 60.3679 129.184 60.6307 128.261 61.1562C127.337 61.6676 126.606 62.3707 126.066 63.2656C125.526 64.1463 125.242 65.1477 125.214 66.2699V72.4276C125.214 73.7628 125.477 74.9347 126.002 75.9432C126.528 76.9375 127.273 77.7116 128.239 78.2656C129.205 78.8196 130.356 79.0966 131.691 79.0966C132.614 79.0966 133.452 78.9687 134.205 78.7131C134.958 78.4574 135.604 78.081 136.144 77.5838C136.684 77.0866 137.089 76.4759 137.359 75.7514L146.925 76.0284C146.528 78.1733 145.654 80.0412 144.305 81.6321C142.969 83.2088 141.215 84.4375 139.042 85.3182C136.869 86.1847 134.354 86.6179 131.499 86.6179ZM45.3026 159V115.364H63.4986C66.7656 115.364 69.5 115.825 71.7017 116.749C73.9176 117.672 75.5795 118.964 76.6875 120.626C77.8097 122.288 78.3707 124.213 78.3707 126.401C78.3707 128.062 78.0227 129.547 77.3267 130.854C76.6307 132.146 75.6719 133.219 74.4503 134.071C73.2287 134.923 71.8153 135.52 70.2102 135.861V136.287C71.9716 136.372 73.598 136.848 75.0895 137.714C76.5952 138.581 77.8026 139.788 78.7116 141.337C79.6207 142.871 80.0753 144.689 80.0753 146.791C80.0753 149.135 79.4787 151.23 78.2855 153.077C77.0923 154.909 75.3665 156.358 73.108 157.423C70.8494 158.474 68.108 159 64.8835 159H45.3026ZM55.8494 150.499H62.3693C64.6563 150.499 66.3395 150.065 67.419 149.199C68.5128 148.332 69.0597 147.125 69.0597 145.577C69.0597 144.455 68.7969 143.489 68.2713 142.679C67.7457 141.855 67 141.223 66.0341 140.783C65.0682 140.328 63.9105 140.101 62.5611 140.101H55.8494V150.499ZM55.8494 133.304H61.6875C62.8381 133.304 63.8608 133.112 64.7557 132.729C65.6506 132.345 66.3466 131.791 66.8438 131.067C67.3551 130.342 67.6108 129.469 67.6108 128.446C67.6108 126.983 67.0923 125.832 66.0554 124.994C65.0185 124.156 63.6193 123.737 61.858 123.737H55.8494V133.304ZM100.445 159.618C97.0213 159.618 94.0668 158.943 91.581 157.594C89.1094 156.23 87.206 154.291 85.8707 151.777C84.5497 149.249 83.8892 146.244 83.8892 142.764C83.8892 139.384 84.5568 136.429 85.892 133.901C87.2273 131.358 89.1094 129.384 91.5384 127.977C93.9673 126.557 96.8295 125.847 100.125 125.847C102.455 125.847 104.585 126.209 106.517 126.933C108.449 127.658 110.118 128.73 111.524 130.151C112.93 131.571 114.024 133.325 114.805 135.413C115.587 137.487 115.977 139.866 115.977 142.551V145.151H87.5327V139.099H106.283C106.268 137.991 106.006 137.004 105.494 136.138C104.983 135.271 104.28 134.597 103.385 134.114C102.504 133.616 101.489 133.368 100.338 133.368C99.1733 133.368 98.1293 133.631 97.206 134.156C96.2827 134.668 95.5511 135.371 95.0114 136.266C94.4716 137.146 94.1875 138.148 94.1591 139.27V145.428C94.1591 146.763 94.4219 147.935 94.9474 148.943C95.473 149.937 96.2188 150.712 97.1847 151.266C98.1506 151.82 99.3011 152.097 100.636 152.097C101.56 152.097 102.398 151.969 103.151 151.713C103.903 151.457 104.55 151.081 105.089 150.584C105.629 150.087 106.034 149.476 106.304 148.751L115.871 149.028C115.473 151.173 114.599 153.041 113.25 154.632C111.915 156.209 110.161 157.437 107.987 158.318C105.814 159.185 103.3 159.618 100.445 159.618ZM136.597 159.618C133.174 159.618 130.219 158.943 127.733 157.594C125.262 156.23 123.358 154.291 122.023 151.777C120.702 149.249 120.042 146.244 120.042 142.764C120.042 139.384 120.709 136.429 122.044 133.901C123.38 131.358 125.262 129.384 127.691 127.977C130.12 126.557 132.982 125.847 136.277 125.847C138.607 125.847 140.738 126.209 142.669 126.933C144.601 127.658 146.27 128.73 147.676 130.151C149.083 131.571 150.176 133.325 150.958 135.413C151.739 137.487 152.13 139.866 152.13 142.551V145.151H123.685V139.099H142.435C142.421 137.991 142.158 137.004 141.647 136.138C141.135 135.271 140.432 134.597 139.537 134.114C138.657 133.616 137.641 133.368 136.49 133.368C135.326 133.368 134.282 133.631 133.358 134.156C132.435 134.668 131.703 135.371 131.164 136.266C130.624 137.146 130.34 138.148 130.311 139.27V145.428C130.311 146.763 130.574 147.935 131.1 148.943C131.625 149.937 132.371 150.712 133.337 151.266C134.303 151.82 135.453 152.097 136.789 152.097C137.712 152.097 138.55 151.969 139.303 151.713C140.056 151.457 140.702 151.081 141.242 150.584C141.782 150.087 142.186 149.476 142.456 148.751L152.023 149.028C151.625 151.173 150.752 153.041 149.402 154.632C148.067 156.209 146.313 157.437 144.14 158.318C141.966 159.185 139.452 159.618 136.597 159.618ZM163.31 159.618C161.776 159.618 160.462 159.078 159.369 157.999C158.289 156.919 157.756 155.612 157.771 154.078C157.756 152.572 158.289 151.287 159.369 150.222C160.462 149.142 161.776 148.602 163.31 148.602C164.759 148.602 166.038 149.142 167.146 150.222C168.268 151.287 168.836 152.572 168.85 154.078C168.836 155.101 168.566 156.031 168.04 156.869C167.529 157.707 166.854 158.375 166.016 158.872C165.192 159.369 164.29 159.618 163.31 159.618Z" fill="white"/>
</svg>
